<svg xmlns="http://www.w3.org/2000/svg" viewBox="0 0 800 500" width="800" height="500"><rect width="800" height="500" fill="#2c2931"/><rect x="40" y="60" width="720" height="280" rx="40" fill="#4d4953"/><path d="M160 70V330M640 70V330" stroke="#000" stroke-opacity=".18" stroke-width="3"/><rect x="20" y="300" width="760" height="150" rx="36" fill="#433f48"/><rect x="270" y="322" width="260" height="110" rx="28" fill="#5b36a6"/><rect x="262" y="118" width="54" height="206" rx="27" fill="#6a42bd"/><rect x="484" y="118" width="54" height="206" rx="27" fill="#6a42bd"/><rect x="285" y="96" width="230" height="262" rx="70" fill="#7a4fd0"/><rect x="318" y="54" width="164" height="112" rx="40" fill="#8a63dc"/><rect x="318" y="150" width="164" height="192" rx="54" fill="#e9e6dc"/><path d="M360 170L392 330M440 170L408 330" stroke="#1b1d1f" stroke-width="14" stroke-linecap="round"/><rect x="376" y="236" width="48" height="18" rx="6" fill="#1b1d1f"/><rect x="384" y="320" width="32" height="26" rx="6" fill="#c23b2e"/><path d="M300 110Q330 92 360 96" stroke="#fff" stroke-opacity=".35" stroke-width="6" fill="none" stroke-linecap="round"/><path transform="translate(470 120) scale(1.2)" d="M0-14L3-3L14 0L3 3L0 14L-3 3L-14 0L-3-3Z" fill="#fff" opacity="0.95"/><path transform="translate(330 300) scale(0.8)" d="M0-14L3-3L14 0L3 3L0 14L-3 3L-14 0L-3-3Z" fill="#fff" opacity="0.95"/><path transform="translate(620 360) scale(1.0)" d="M0-14L3-3L14 0L3 3L0 14L-3 3L-14 0L-3-3Z" fill="#fff" opacity="0.95"/><path transform="translate(150 200) scale(0.7)" d="M0-14L3-3L14 0L3 3L0 14L-3 3L-14 0L-3-3Z" fill="#fff" opacity="0.95"/><text x="400" y="480" text-anchor="middle" font-family="Helvetica, Arial, sans-serif" font-size="17" font-weight="600" fill="#ffffff" opacity=".75">Platzhalter · eigenes Nachher-Foto einsetzen</text></svg>
